<?xml version="1.0" encoding="UTF-8" standalone="no"?>
<!-- Uploaded to: SVG Repo, www.svgrepo.com, Generator: SVG Repo Mixer Tools -->

<svg
   fill="#000000"
   width="282.07999"
   height="619.04028"
   viewBox="0 0 35.259998 77.380036"
   version="1.1"
   id="svg2"
   sodipodi:docname="bottle.svg"
   inkscape:version="1.4.2 (f4327f4, 2025-05-13)"
   xmlns:inkscape="http://www.inkscape.org/namespaces/inkscape"
   xmlns:sodipodi="http://sodipodi.sourceforge.net/DTD/sodipodi-0.dtd"
   xmlns="http://www.w3.org/2000/svg"
   xmlns:svg="http://www.w3.org/2000/svg">
  <defs
     id="defs2" />
  <sodipodi:namedview
     id="namedview2"
     pagecolor="#ffffff"
     bordercolor="#000000"
     borderopacity="0.25"
     inkscape:showpageshadow="2"
     inkscape:pageopacity="0.0"
     inkscape:pagecheckerboard="0"
     inkscape:deskcolor="#d1d1d1"
     inkscape:zoom="3.2208714"
     inkscape:cx="248.06951"
     inkscape:cy="319.32352"
     inkscape:window-width="2560"
     inkscape:window-height="1411"
     inkscape:window-x="-9"
     inkscape:window-y="-9"
     inkscape:window-maximized="1"
     inkscape:current-layer="Calque_2"
     showgrid="false">
    <inkscape:grid
       id="grid1"
       units="px"
       originx="0"
       originy="0"
       spacingx="0.125"
       spacingy="0.125"
       empcolor="#0099e5"
       empopacity="0.30196078"
       color="#0099e5"
       opacity="0.14901961"
       empspacing="5"
       enabled="true"
       visible="false" />
  </sodipodi:namedview>
  <title
     id="title1" />
  <g
     data-name="Calque 2"
     id="Calque_2"
     transform="translate(-32.49,-15.12)">
    <path
       d="m 58.31,20.3 v -3.68 c 0,-0.828427 -0.671573,-1.5 -1.5,-1.5 h -0.66 c 0,0 -12.061341,0.005 -12.06,0 h -0.66 c -0.828427,0 -1.5,0.671573 -1.5,1.5 v 3.68 c -5.355683,0.557368 -9.428016,2.565406 -9.44,7.95 V 91 c -1.8e-5,0.832348 0.67767,1.505549 1.51,1.5 h 32.25 c 0.828427,0 1.5,-0.671573 1.5,-1.5 V 28.25 C 67.738016,22.865406 63.665683,20.857368 58.31,20.3 Z M 44.93,18.12 h 10.38 v 2.13 H 44.93 Z M 64.75,89.5 H 35.49 V 28.25 c 0.0055,-4.139852 3.360148,-4.994491 7.5,-5 h 14.26 c 4.139852,0.0055 7.494491,0.860148 7.5,5 z"
       id="path1"
       sodipodi:nodetypes="cssccssccccsscccccccccccccc" />
    <path
       d="m 38.92,34.08 c -0.828427,0 -1.5,0.671573 -1.5,1.5 v 47.34 c 0,1.999999 3,1.999999 3,0 V 35.58 c 0,-0.828427 -0.671573,-1.5 -1.5,-1.5 z"
       id="path2"
       sodipodi:nodetypes="ssssss"
       style="fill:#000000;fill-opacity:1" />
    <path
       d="m 45.51748,59.5 c 0,-0.828427 -0.421573,-1 -1.25,-1 h -3.59 c -1.999999,0 -1.999999,2 0,2 h 3.59 c 0.828427,0 1.25,-0.171573 1.25,-1 z"
       id="path3"
       sodipodi:nodetypes="ssssss" />
    <path
       d="m 45.512524,75.249829 c 0,-0.828427 -0.421573,-1 -1.25,-1 h -3.59 c -1.999999,0 -1.999999,2 0,2 h 3.59 c 0.828427,0 1.25,-0.171573 1.25,-1 z"
       id="path3-1"
       sodipodi:nodetypes="ssssss" />
    <path
       d="m 45.523125,43.741052 c 0,-0.828427 -0.421573,-1 -1.25,-1 h -3.59 c -1.999999,0 -1.999999,2 0,2 h 3.59 c 0.828427,0 1.25,-0.171573 1.25,-1 z"
       id="path3-5"
       sodipodi:nodetypes="ssssss" />
  </g>
</svg>
