<?xml version="1.0" encoding="UTF-8" standalone="no"?>
<!-- Created with Inkscape (http://www.inkscape.org/) -->

<svg
   width="1309.3676"
   height="53"
   viewBox="0 0 1309.3676 53"
   version="1.1"
   id="svg1"
   inkscape:version="1.4.2 (f4327f4, 2025-05-13)"
   sodipodi:docname="wavy-water-line.svg"
   xmlns:inkscape="http://www.inkscape.org/namespaces/inkscape"
   xmlns:sodipodi="http://sodipodi.sourceforge.net/DTD/sodipodi-0.dtd"
   xmlns="http://www.w3.org/2000/svg"
   xmlns:svg="http://www.w3.org/2000/svg">
  <sodipodi:namedview
     id="namedview1"
     pagecolor="#ffffff"
     bordercolor="#000000"
     borderopacity="0.25"
     inkscape:showpageshadow="2"
     inkscape:pageopacity="0.0"
     inkscape:pagecheckerboard="0"
     inkscape:deskcolor="#d1d1d1"
     inkscape:document-units="px"
     showguides="false"
     inkscape:zoom="1.687037"
     inkscape:cx="573.78706"
     inkscape:cy="123.58947"
     inkscape:window-width="2560"
     inkscape:window-height="1411"
     inkscape:window-x="-9"
     inkscape:window-y="-9"
     inkscape:window-maximized="1"
     inkscape:current-layer="layer1" />
  <defs
     id="defs1" />
  <g
     inkscape:label="Layer 1"
     inkscape:groupmode="layer"
     id="layer1"
     transform="translate(-143.36115,-317.43337)">
    <path
       style="fill:#0000ff;fill-opacity:1;stroke:#000000;stroke-width:5;stroke-linecap:round;stroke-dasharray:none;stroke-opacity:1"
       d="m 145.86115,367.93337 c 0,0 43.44995,-48 81.52297,-48 38.07302,0 43.44995,48 81.52297,48 38.07302,0 43.44996,-48 81.52298,-48 38.07302,0 43.44995,48 81.52297,48 38.07302,0 43.44995,-48 81.52297,-48 38.07302,0 43.44995,48 81.52297,48 38.07302,0 43.44995,-48 81.52297,-48 38.07302,0 43.44995,48 81.52297,48 38.07302,0 43.44996,-48 81.52298,-48 38.07302,0 43.44995,48 81.52297,48 38.07301,0 43.44993,-47.99999 81.52293,-48 38.073,-1e-5 43.45,48 81.523,48 38.073,0 43.45,-48 81.523,-48 38.073,0 43.45,48.00001 81.523,48 38.073,-1e-5 43.4499,-47.99999 81.5229,-48 38.073,-1e-5 81.523,48 81.523,48"
       id="path1"
       sodipodi:nodetypes="csssssssssssssssc" />
  </g>
</svg>
